<svg xmlns="http://www.w3.org/2000/svg" viewBox="0 0 512 512">
  <rect width="512" height="512" rx="0" fill="#FFF6E5"/>
  <circle cx="256" cy="256" r="236" fill="#FFE3C2"/>
  <g stroke-linejoin="round">
    <g transform="translate(36 150) scale(1.05)">
      <ellipse cx="6" cy="128" rx="30" ry="13" fill="#1E88E5" stroke="#0B3F86" stroke-width="5" transform="rotate(-28 34 128)"/>
      <path d="M100 32 C146 32 170 66 170 118 C170 172 140 204 100 204 C60 204 30 172 30 118 C30 66 54 32 100 32 Z" fill="#1E88E5" stroke="#0B3F86" stroke-width="5"/>
      <ellipse cx="76" cy="106" rx="15" ry="18" fill="#fff" stroke="#2b2b2b" stroke-width="2.5"/><ellipse cx="124" cy="106" rx="15" ry="18" fill="#fff" stroke="#2b2b2b" stroke-width="2.5"/>
      <circle cx="78" cy="110" r="8.5" fill="#1d1d1d"/><circle cx="126" cy="110" r="8.5" fill="#1d1d1d"/>
      <path d="M78 138 Q100 170 122 138 Q100 146 78 138 Z" fill="#6d1b1b" stroke="#2b2b2b" stroke-width="3"/>
    </g>
    <g transform="translate(266 150) scale(1.05)">
      <ellipse cx="194" cy="128" rx="30" ry="13" fill="#FDD835" stroke="#A07C00" stroke-width="5" transform="rotate(28 166 128)"/>
      <path d="M100 32 C146 32 170 66 170 118 C170 172 140 204 100 204 C60 204 30 172 30 118 C30 66 54 32 100 32 Z" fill="#FDD835" stroke="#A07C00" stroke-width="5"/>
      <ellipse cx="76" cy="106" rx="15" ry="18" fill="#fff" stroke="#2b2b2b" stroke-width="2.5"/><ellipse cx="124" cy="106" rx="15" ry="18" fill="#fff" stroke="#2b2b2b" stroke-width="2.5"/>
      <circle cx="78" cy="110" r="8.5" fill="#1d1d1d"/><circle cx="126" cy="110" r="8.5" fill="#1d1d1d"/>
      <path d="M78 138 Q100 170 122 138 Q100 146 78 138 Z" fill="#6d1b1b" stroke="#2b2b2b" stroke-width="3"/>
    </g>
    <g transform="translate(130 60) scale(1.3)">
      <ellipse cx="6" cy="128" rx="30" ry="13" fill="#E53935" stroke="#8E1B18" stroke-width="5" transform="rotate(-28 34 128)"/>
      <ellipse cx="194" cy="128" rx="30" ry="13" fill="#E53935" stroke="#8E1B18" stroke-width="5" transform="rotate(-52 166 128)"/>
      <ellipse cx="74" cy="206" rx="22" ry="13" fill="#E53935" stroke="#8E1B18" stroke-width="5"/><ellipse cx="126" cy="206" rx="22" ry="13" fill="#E53935" stroke="#8E1B18" stroke-width="5"/>
      <path d="M100 32 C146 32 170 66 170 118 C170 172 140 204 100 204 C60 204 30 172 30 118 C30 66 54 32 100 32 Z" fill="#E53935" stroke="#8E1B18" stroke-width="5"/>
      <ellipse cx="74" cy="64" rx="18" ry="10" transform="rotate(-25 74 64)" fill="#fff" opacity=".32"/>
      <ellipse cx="76" cy="106" rx="15" ry="18" fill="#fff" stroke="#2b2b2b" stroke-width="2.5"/><ellipse cx="124" cy="106" rx="15" ry="18" fill="#fff" stroke="#2b2b2b" stroke-width="2.5"/>
      <circle cx="78" cy="110" r="8.5" fill="#1d1d1d"/><circle cx="126" cy="110" r="8.5" fill="#1d1d1d"/>
      <circle cx="81" cy="106" r="3" fill="#fff"/><circle cx="129" cy="106" r="3" fill="#fff"/>
      <ellipse cx="56" cy="140" rx="11" ry="7" fill="#ff6f9a" opacity=".55"/><ellipse cx="144" cy="140" rx="11" ry="7" fill="#ff6f9a" opacity=".55"/>
      <path d="M78 138 Q100 170 122 138 Q100 146 78 138 Z" fill="#6d1b1b" stroke="#2b2b2b" stroke-width="3"/>
      <path d="M90 152 Q100 160 110 152 Q100 148 90 152 Z" fill="#ff7d8a"/>
    </g>
  </g>
</svg>
